<svg width="25" height="24" viewBox="0 0 25 24" fill="none" xmlns="http://www.w3.org/2000/svg">
<path d="M12.5005 20.5H12.5C10.5099 20.5 8.76114 19.899 7.23458 18.6954C5.70486 17.4893 4.71745 15.9561 4.26079 14.0817L4.26091 14.0816L4.25812 14.0712C4.23384 13.9801 4.24437 13.914 4.31519 13.8257C4.3938 13.7275 4.49612 13.6661 4.65957 13.6464L4.66202 13.6461C4.82265 13.6261 4.94888 13.6556 5.06295 13.7258C5.16461 13.7884 5.24371 13.882 5.29496 14.0403C5.72509 15.6437 6.61331 16.9591 7.94746 17.9731C9.28525 18.9898 10.8084 19.5 12.5 19.5C14.5803 19.5 16.3625 18.7699 17.8165 17.3166C19.2706 15.8632 20.0007 14.0809 20 11.9998C19.9993 9.91902 19.2693 8.1372 17.8166 6.68445C16.3638 5.2317 14.5817 4.50142 12.5003 4.5H12.5C11.2692 4.5 10.1132 4.78628 9.03971 5.35882C7.97202 5.92826 7.07333 6.71197 6.34657 7.70463L5.76424 8.5H6.75H8.5C8.65715 8.5 8.76566 8.54777 8.85945 8.64155C8.95317 8.73527 9.00037 8.84308 9 8.99882C8.99963 9.1559 8.95167 9.26557 8.85722 9.36068C8.76482 9.45372 8.65817 9.50074 8.50235 9.50001V9.5H8.5H4.5C4.34287 9.5 4.23505 9.45227 4.14217 9.35906C4.04839 9.26496 4.00047 9.15612 4 8.99934V5C4 4.84287 4.04773 4.73505 4.14094 4.64217C4.23515 4.54829 4.34412 4.50037 4.50118 4.5C4.65639 4.49963 4.7647 4.5468 4.85945 4.64155C4.95414 4.73624 5.00073 4.84384 5.00001 4.99764H5V5V6.35V7.77976L5.89103 6.6616C6.69395 5.65401 7.6715 4.87698 8.82792 4.32645C9.98566 3.7753 11.2079 3.5 12.5 3.5C13.6848 3.5 14.7875 3.72487 15.8134 4.17145C16.8505 4.62289 17.7477 5.22948 18.5096 5.9907C19.2713 6.75176 19.8781 7.64882 20.3295 8.68646C20.7761 9.71307 21.0006 10.8157 21 11.9997C20.9994 13.1841 20.7748 14.2871 20.3293 15.314C19.8793 16.3513 19.2727 17.2481 18.5099 18.009C17.7465 18.7706 16.849 19.3776 15.813 19.8297C14.7888 20.2767 13.6865 20.5013 12.5005 20.5ZM6.925 19.088C5.30833 17.8133 4.25833 16.184 3.775 14.2L6 5.77328C6.74734 4.98128 7.61834 4.34852 8.613 3.875C9.83833 3.29167 11.134 3 12.5 3C13.75 3 14.921 3.23767 16.013 3.713C17.105 4.18833 18.055 4.82967 18.863 5.637C19.671 6.44433 20.3127 7.39433 20.788 8.487C21.2633 9.57967 21.5007 10.7507 21.5 12C21.4993 13.2493 21.262 14.4203 20.788 15.513C20.314 16.6057 19.6723 17.5557 18.863 18.363C18.0537 19.1703 17.1037 19.812 16.013 20.288C14.9223 20.764 13.7513 21.0013 12.5 21C10.4 21 8.54167 20.3627 6.925 19.088ZM13 11.6V11.8071L13.1464 11.9536L15.6464 14.4536C15.7268 14.534 15.775 14.6357 15.775 14.8C15.775 14.9643 15.7268 15.066 15.6464 15.1464C15.566 15.2268 15.4643 15.275 15.3 15.275C15.1357 15.275 15.034 15.2268 14.9536 15.1464L12.1536 12.3464C12.0988 12.2916 12.0626 12.2356 12.0391 12.1769C12.0127 12.1112 12 12.0451 12 11.975V8C12 7.84287 12.0477 7.73505 12.1409 7.64217C12.2351 7.54829 12.3441 7.50037 12.5012 7.5C12.6564 7.49963 12.7647 7.5468 12.8594 7.64155C12.9541 7.73624 13.0007 7.84384 13 7.99764V8V11.6Z" fill="#68696D" stroke="#68696D"/>
</svg>
