<svg width="25" height="24" viewBox="0 0 25 24" fill="none" xmlns="http://www.w3.org/2000/svg">
<mask id="mask0_216_261" style="mask-type:luminance" maskUnits="userSpaceOnUse" x="0" y="0" width="25" height="24">
<path d="M0.5 1.90735e-06H24.5V24H0.5V1.90735e-06Z" fill="white"/>
</mask>
<g mask="url(#mask0_216_261)">
<path d="M12.4993 8.31249C10.4628 8.31249 8.81179 9.96342 8.81179 12C8.81179 14.0365 10.4628 15.6875 12.4993 15.6875C14.5358 15.6875 16.1868 14.0365 16.1868 12C16.1868 9.96342 14.5358 8.31249 12.4993 8.31249ZM22.8494 9.36858L21.851 10.1905C20.7121 11.128 20.7121 12.8719 21.851 13.8095L22.8494 14.6314C23.2032 14.9227 23.2946 15.427 23.0654 15.8239L21.094 19.2385C20.8649 19.6354 20.3824 19.8085 19.9532 19.6477L18.7422 19.194C17.3609 18.6765 15.8506 19.5485 15.6081 21.0035L15.3955 22.2791C15.3202 22.7311 14.929 23.0625 14.4708 23.0625H10.5278C10.0696 23.0625 9.67847 22.7311 9.60314 22.2791L9.39051 21.0035C9.14803 19.5485 7.63776 18.6765 6.2564 19.194L5.04544 19.6477C4.61625 19.8085 4.13376 19.6354 3.90459 19.2385L1.93317 15.8239C1.70405 15.427 1.79541 14.9227 2.14922 14.6314L3.14766 13.8095C4.28648 12.8719 4.28648 11.128 3.14766 10.1905L2.14922 9.36858C1.79541 9.0773 1.70405 8.57292 1.93317 8.17603L3.90459 4.76142C4.13376 4.36453 4.61625 4.19147 5.04544 4.35225L6.2564 4.80591C7.63776 5.32341 9.14803 4.45149 9.39051 2.99644L9.60314 1.72083C9.67847 1.26881 10.0696 0.937502 10.5278 0.937502H14.4708C14.929 0.937502 15.3202 1.26881 15.3955 1.72083L15.6081 2.99644C15.8506 4.45149 17.3609 5.32341 18.7422 4.80591L19.9532 4.35225C20.3824 4.19147 20.8649 4.36453 21.094 4.76142L23.0654 8.17603C23.2946 8.57292 23.2032 9.0773 22.8494 9.36858Z" stroke="#68696D" stroke-miterlimit="10" stroke-linecap="round" stroke-linejoin="round"/>
</g>
</svg>
