<svg width="16" height="17" viewBox="0 0 16 17" fill="none" xmlns="http://www.w3.org/2000/svg">
<path d="M8.00004 1.83337C4.31724 1.83337 1.33337 4.81724 1.33337 8.50004C1.33337 12.1828 4.31724 15.1667 8.00004 15.1667C11.6828 15.1667 14.6667 12.1828 14.6667 8.50004C14.6667 4.81724 11.6828 1.83337 8.00004 1.83337ZM8.00004 13.8764C5.02961 13.8764 2.6237 11.4705 2.6237 8.50004C2.6237 5.52961 5.02961 3.1237 8.00004 3.1237C10.9705 3.1237 13.3764 5.52961 13.3764 8.50004C13.3764 11.4705 10.9705 13.8764 8.00004 13.8764ZM9.66133 11.0699L7.37907 9.41133C7.29574 9.3495 7.24735 9.25273 7.24735 9.15058V4.7366C7.24735 4.55918 7.39251 4.41402 7.56993 4.41402H8.43015C8.60757 4.41402 8.75273 4.55918 8.75273 4.7366V8.54574L10.5484 9.85219C10.6936 9.95703 10.7232 10.1586 10.6183 10.3038L10.1129 11C10.0081 11.1425 9.80649 11.1748 9.66133 11.0699Z" fill="#5D5D65"/>
</svg>
