<svg width="24" height="24" viewBox="0 0 24 24" fill="none" xmlns="http://www.w3.org/2000/svg">
<path d="M15.5 11.5C15.5 11.9596 15.4095 12.4148 15.2336 12.8394C15.0577 13.264 14.7999 13.6499 14.4749 13.9749C14.1499 14.2999 13.764 14.5577 13.3394 14.7336C12.9148 14.9095 12.4596 15 12 15C11.5404 15 11.0852 14.9095 10.6606 14.7336C10.236 14.5577 9.85013 14.2999 9.52513 13.9749C9.20012 13.6499 8.94231 13.264 8.76642 12.8394C8.59053 12.4148 8.5 11.9596 8.5 11.5C8.5 10.5717 8.86875 9.6815 9.52513 9.02513C10.1815 8.36875 11.0717 8 12 8C12.9283 8 13.8185 8.36875 14.4749 9.02513C15.1313 9.6815 15.5 10.5717 15.5 11.5Z" stroke="black" stroke-width="1.5" stroke-linecap="round" stroke-linejoin="round"/>
<path d="M21 13.6C21.316 13.512 21.6493 13.4677 22 13.467V9.533C19.143 9.533 17.286 6.43 18.732 3.967L15.268 2C13.804 4.494 10.198 4.494 8.734 2L5.27 3.967C6.716 6.43 4.857 9.533 2 9.533V13.467C4.857 13.467 6.714 16.57 5.268 19.033L8.732 21C9.06414 20.4284 9.54114 19.9544 10.1149 19.6259C10.6886 19.2974 11.3389 19.126 12 19.129" stroke="black" stroke-width="1.5" stroke-linecap="round" stroke-linejoin="round"/>
<path d="M18.5 15L18.758 15.697C19.096 16.611 19.265 17.068 19.598 17.401C19.932 17.735 20.389 17.904 21.303 18.242L22 18.5L21.303 18.758C20.389 19.096 19.932 19.265 19.599 19.598C19.265 19.932 19.096 20.389 18.758 21.303L18.5 22L18.242 21.303C17.904 20.389 17.735 19.932 17.402 19.599C17.068 19.265 16.611 19.096 15.697 18.758L15 18.5L15.697 18.242C16.611 17.904 17.068 17.735 17.401 17.402C17.735 17.068 17.904 16.611 18.242 15.697L18.5 15Z" stroke="black" stroke-width="1.5" stroke-linecap="round" stroke-linejoin="round"/>
</svg>
