<svg width="24" height="24" viewBox="0 0 24 24" fill="none" xmlns="http://www.w3.org/2000/svg">
<path d="M12 10V19M12 10L15 13M12 10L9.00002 13M17.5 15C19.019 15 20 13.769 20 12.25C20 11.6486 19.8028 11.0638 19.4387 10.5852C19.0746 10.1066 18.5636 9.76052 17.984 9.6C17.8948 8.47846 17.43 7.41977 16.6647 6.5951C15.8994 5.77042 14.8783 5.22797 13.7665 5.05543C12.6547 4.88289 11.5173 5.09036 10.538 5.64429C9.55874 6.19822 8.79491 7.06624 8.37002 8.108C7.47544 7.86002 6.519 7.97757 5.71109 8.43479C4.90318 8.892 4.30999 9.65143 4.06202 10.546C3.81404 11.4406 3.93159 12.397 4.3888 13.2049C4.84601 14.0128 5.60544 14.606 6.50002 14.854" stroke="black" stroke-width="2" stroke-linecap="round" stroke-linejoin="round"/>
</svg>
